<?xml version="1.0" encoding="UTF-8"?>
<svg xmlns="http://www.w3.org/2000/svg" xmlns:xlink="http://www.w3.org/1999/xlink" width="20px" height="12px" viewBox="0 0 20 12" version="1.1">
<g id="surface1">
<path style=" stroke:none;fill-rule:nonzero;fill:rgb(0%,0%,0%);fill-opacity:1;" d="M 4.847656 0.59375 C 4.738281 0.613281 4.59375 0.664062 4.476562 0.722656 C 4.339844 0.789062 4.199219 0.898438 4.03125 1.074219 C 3.953125 1.160156 3.753906 1.363281 3.59375 1.523438 C 3.4375 1.6875 3.167969 1.964844 3 2.136719 C 2.832031 2.308594 2.566406 2.582031 2.40625 2.746094 C 2.246094 2.90625 1.859375 3.304688 1.546875 3.628906 C 1.234375 3.949219 0.871094 4.324219 0.738281 4.457031 C 0.386719 4.820312 0.273438 4.972656 0.148438 5.269531 C 0.0507812 5.492188 0.0117188 5.671875 0.00390625 5.953125 C -0.0078125 6.359375 0.0625 6.675781 0.242188 7.023438 C 0.390625 7.300781 0.375 7.28125 1.09375 8.015625 C 1.253906 8.179688 1.636719 8.574219 1.945312 8.890625 C 2.253906 9.210938 2.640625 9.605469 2.800781 9.769531 C 2.960938 9.9375 3.230469 10.210938 3.394531 10.382812 C 4.101562 11.105469 4.121094 11.128906 4.28125 11.21875 C 4.570312 11.386719 4.785156 11.441406 5.0625 11.429688 C 5.523438 11.40625 5.933594 11.140625 6.140625 10.730469 C 6.234375 10.542969 6.265625 10.417969 6.277344 10.210938 C 6.289062 9.988281 6.261719 9.851562 6.171875 9.671875 C 6.101562 9.527344 6.066406 9.480469 5.855469 9.257812 C 5.089844 8.464844 4.414062 7.761719 4.242188 7.585938 C 4.128906 7.46875 4.007812 7.34375 3.96875 7.300781 L 3.902344 7.226562 L 11.445312 7.222656 L 18.992188 7.21875 L 19.101562 7.179688 C 19.164062 7.164062 19.273438 7.113281 19.351562 7.074219 C 19.546875 6.972656 19.757812 6.761719 19.859375 6.570312 C 19.964844 6.367188 19.984375 6.277344 19.996094 6.039062 C 20.003906 5.855469 20 5.804688 19.96875 5.695312 C 19.847656 5.199219 19.460938 4.847656 18.945312 4.757812 C 18.882812 4.742188 16.542969 4.738281 11.40625 4.738281 L 3.960938 4.738281 L 4.1875 4.507812 C 4.3125 4.382812 4.507812 4.183594 4.617188 4.066406 C 4.730469 3.949219 4.921875 3.75 5.046875 3.621094 C 6.078125 2.558594 6.101562 2.527344 6.195312 2.34375 C 6.289062 2.160156 6.320312 2.023438 6.320312 1.78125 C 6.320312 1.609375 6.3125 1.550781 6.285156 1.449219 C 6.164062 1.035156 5.890625 0.753906 5.476562 0.632812 C 5.363281 0.601562 5.296875 0.589844 5.132812 0.585938 C 5.023438 0.582031 4.890625 0.585938 4.847656 0.59375 Z M 4.847656 0.59375 "/>
</g>
</svg>
