<svg width="530" height="232" viewBox="0 0 530 232" fill="none" xmlns="http://www.w3.org/2000/svg">
<path fill-rule="evenodd" clip-rule="evenodd" d="M232.418 96.2625C235.494 96.2625 237.949 97.0331 239.783 98.5759C241.617 100.118 242.626 102.199 242.814 104.816H236.566C236.473 103.787 236.046 102.969 235.286 102.362C234.523 101.754 233.504 101.452 232.232 101.452C231.05 101.452 230.142 101.669 229.504 102.106C228.867 102.541 228.549 103.15 228.549 103.928C228.549 104.801 228.985 105.463 229.853 105.916C230.724 106.367 232.076 106.827 233.91 107.295C235.775 107.761 237.313 108.246 238.525 108.744C239.737 109.242 240.784 110.012 241.67 111.057C242.555 112.101 243.015 113.48 243.045 115.194C243.045 116.688 242.634 118.029 241.811 119.214C240.987 120.397 239.806 121.326 238.267 121.995C236.729 122.665 234.935 123 232.884 123C230.77 123 228.875 122.617 227.198 121.855C225.519 121.092 224.19 120.056 223.211 118.747C222.232 117.438 221.697 115.989 221.603 114.399H228.176C228.3 115.397 228.789 116.223 229.645 116.877C230.498 117.532 231.563 117.858 232.837 117.858C234.08 117.858 235.052 117.609 235.75 117.111C236.45 116.613 236.799 115.974 236.799 115.194C236.799 114.353 236.372 113.721 235.517 113.301C234.663 112.879 233.304 112.421 231.439 111.922C229.512 111.455 227.936 110.971 226.709 110.473C225.48 109.974 224.423 109.21 223.537 108.183C222.651 107.154 222.209 105.768 222.209 104.021C222.209 102.589 222.621 101.28 223.444 100.096C224.268 98.9106 225.449 97.9769 226.987 97.2903C228.526 96.6051 230.335 96.2625 232.418 96.2625ZM271.014 96.2627C272.939 96.2627 274.626 96.6528 276.071 97.4306C277.516 98.2106 278.674 99.1917 279.544 100.375V96.6829H286.116V122.58H279.544V118.792C278.706 120.008 277.547 121.014 276.071 121.807C274.595 122.602 272.894 123 270.967 123C268.792 123 266.811 122.439 265.024 121.316C263.236 120.196 261.823 118.614 260.781 116.573C259.74 114.532 259.221 112.187 259.221 109.537C259.221 106.92 259.74 104.599 260.781 102.572C261.823 100.548 263.236 98.9906 265.024 97.8989C266.811 96.8086 268.807 96.2627 271.014 96.2627ZM316.275 96.2629C318.729 96.2629 320.929 96.7915 322.871 97.8509C324.811 98.9103 326.32 100.415 327.393 102.363C328.465 104.31 329 106.545 329 109.071C329 110.005 328.937 110.846 328.814 111.595H309.935C310.091 113.465 310.744 114.929 311.893 115.989C313.042 117.048 314.458 117.577 316.134 117.577C318.558 117.577 320.284 116.534 321.308 114.447H328.348C327.602 116.94 326.172 118.989 324.059 120.594C321.946 122.199 319.351 123 316.275 123C313.788 123 311.559 122.446 309.585 121.341C307.612 120.234 306.074 118.669 304.97 116.643C303.868 114.617 303.316 112.28 303.316 109.63C303.316 106.952 303.859 104.599 304.947 102.572C306.034 100.548 307.557 98.99 309.516 97.8983C311.474 96.8087 313.727 96.2629 316.275 96.2629ZM219.879 89.9045V95.2338H207.525V103.415H218.48V108.603H207.525V117.25H219.879V122.579H201V89.9045H219.879ZM253.208 90.2793V96.6831H258.987V102.058H253.208V114.587C253.208 115.459 253.416 116.09 253.836 116.48C254.256 116.87 254.963 117.064 255.958 117.064H258.987V122.579H254.885C249.384 122.579 246.634 119.899 246.634 114.539V102.058H243.557V96.6831H246.634V90.2793H253.208ZM297.305 90.2793V96.6831H303.085V102.058H297.305V114.587C297.305 115.459 297.514 116.09 297.933 116.48C298.354 116.87 299.06 117.064 300.056 117.064H303.085V122.579H298.982C293.481 122.579 290.731 119.899 290.731 114.539V102.058H287.655V96.6831H290.731V90.2793H297.305ZM272.691 102.013C271.479 102.013 270.362 102.307 269.336 102.901C268.31 103.493 267.479 104.358 266.841 105.494C266.204 106.633 265.886 107.979 265.886 109.537C265.886 111.097 266.204 112.458 266.841 113.628C267.479 114.796 268.318 115.692 269.358 116.316C270.4 116.94 271.511 117.25 272.691 117.25C273.904 117.25 275.037 116.947 276.096 116.339C277.15 115.732 277.99 114.859 278.613 113.722C279.233 112.584 279.544 111.221 279.544 109.631C279.544 108.042 279.233 106.679 278.613 105.541C277.99 104.403 277.15 103.531 276.096 102.924C275.037 102.315 273.904 102.013 272.691 102.013ZM316.088 101.638C314.473 101.638 313.112 102.129 312.009 103.11C310.906 104.092 310.23 105.456 309.981 107.199H322.242C322.209 105.518 321.604 104.169 320.422 103.158C319.243 102.144 317.797 101.638 316.088 101.638Z" fill="#45525B"/>
<path fill-rule="evenodd" clip-rule="evenodd" d="M269.459 21L292.711 44.37V77.1913H287.315V46.608L265.64 24.8296L269.459 21ZM254.205 36.318L271.119 53.323V77.1915H237.289V53.323L254.205 36.318ZM261.831 28.6589L281.921 48.8464V77.191H276.525V51.0845L258.023 32.4886L261.831 28.6589Z" fill="#FF8A63"/>
<path d="M68.871 154.696L62.407 177H59.143L53.959 159.048L48.583 177L45.351 177.032L39.111 154.696H42.215L47.079 173.608L52.455 154.696H55.719L60.839 173.544L65.735 154.696H68.871ZM88.0578 167.56C88.0578 168.115 88.0258 168.701 87.9618 169.32H73.9458C74.0524 171.048 74.6391 172.403 75.7058 173.384C76.7938 174.344 78.1058 174.824 79.6418 174.824C80.9004 174.824 81.9458 174.536 82.7778 173.96C83.6311 173.363 84.2284 172.573 84.5698 171.592H87.7058C87.2364 173.277 86.2978 174.653 84.8898 175.72C83.4818 176.765 81.7324 177.288 79.6418 177.288C77.9778 177.288 76.4844 176.915 75.1618 176.168C73.8604 175.421 72.8364 174.365 72.0898 173C71.3431 171.613 70.9698 170.013 70.9698 168.2C70.9698 166.387 71.3324 164.797 72.0578 163.432C72.7831 162.067 73.7964 161.021 75.0978 160.296C76.4204 159.549 77.9351 159.176 79.6418 159.176C81.3058 159.176 82.7778 159.539 84.0578 160.264C85.3378 160.989 86.3191 161.992 87.0018 163.272C87.7058 164.531 88.0578 165.96 88.0578 167.56ZM85.0498 166.952C85.0498 165.843 84.8044 164.893 84.3138 164.104C83.8231 163.293 83.1511 162.685 82.2978 162.28C81.4658 161.853 80.5378 161.64 79.5138 161.64C78.0418 161.64 76.7831 162.109 75.7378 163.048C74.7138 163.987 74.1271 165.288 73.9778 166.952H85.0498ZM93.3735 151.528L92.9895 157.896H90.9735L90.5575 151.528H93.3735ZM99.9073 162.312C100.419 161.309 101.145 160.531 102.083 159.976C103.043 159.421 104.206 159.144 105.571 159.144V162.152H104.803C101.539 162.152 99.9073 163.923 99.9073 167.464V177H96.9953V159.464H99.9073V162.312ZM124.933 167.56C124.933 168.115 124.901 168.701 124.837 169.32H110.821C110.927 171.048 111.514 172.403 112.581 173.384C113.669 174.344 114.981 174.824 116.517 174.824C117.775 174.824 118.821 174.536 119.653 173.96C120.506 173.363 121.103 172.573 121.445 171.592H124.581C124.111 173.277 123.173 174.653 121.765 175.72C120.357 176.765 118.607 177.288 116.517 177.288C114.853 177.288 113.359 176.915 112.037 176.168C110.735 175.421 109.711 174.365 108.965 173C108.218 171.613 107.845 170.013 107.845 168.2C107.845 166.387 108.207 164.797 108.933 163.432C109.658 162.067 110.671 161.021 111.973 160.296C113.295 159.549 114.81 159.176 116.517 159.176C118.181 159.176 119.653 159.539 120.933 160.264C122.213 160.989 123.194 161.992 123.877 163.272C124.581 164.531 124.933 165.96 124.933 167.56ZM121.925 166.952C121.925 165.843 121.679 164.893 121.189 164.104C120.698 163.293 120.026 162.685 119.173 162.28C118.341 161.853 117.413 161.64 116.389 161.64C114.917 161.64 113.658 162.109 112.613 163.048C111.589 163.987 111.002 165.288 110.853 166.952H121.925ZM146.012 159.144C147.334 159.144 148.529 159.432 149.596 160.008C150.662 160.563 151.494 161.405 152.092 162.536C152.71 163.667 153.02 165.043 153.02 166.664V177H150.14V167.08C150.14 165.331 149.702 163.997 148.828 163.08C147.953 162.141 146.758 161.672 145.244 161.672C143.708 161.672 142.481 162.152 141.564 163.112C140.668 164.072 140.22 165.469 140.22 167.304V177H137.308V153.32H140.22V161.96C140.796 161.064 141.585 160.371 142.588 159.88C143.612 159.389 144.753 159.144 146.012 159.144ZM173.777 167.56C173.777 168.115 173.745 168.701 173.681 169.32H159.665C159.771 171.048 160.358 172.403 161.425 173.384C162.513 174.344 163.825 174.824 165.361 174.824C166.619 174.824 167.665 174.536 168.497 173.96C169.35 173.363 169.947 172.573 170.289 171.592H173.425C172.955 173.277 172.017 174.653 170.609 175.72C169.201 176.765 167.451 177.288 165.361 177.288C163.697 177.288 162.203 176.915 160.881 176.168C159.579 175.421 158.555 174.365 157.809 173C157.062 171.613 156.689 170.013 156.689 168.2C156.689 166.387 157.051 164.797 157.777 163.432C158.502 162.067 159.515 161.021 160.817 160.296C162.139 159.549 163.654 159.176 165.361 159.176C167.025 159.176 168.497 159.539 169.777 160.264C171.057 160.989 172.038 161.992 172.721 163.272C173.425 164.531 173.777 165.96 173.777 167.56ZM170.769 166.952C170.769 165.843 170.523 164.893 170.033 164.104C169.542 163.293 168.87 162.685 168.017 162.28C167.185 161.853 166.257 161.64 165.233 161.64C163.761 161.64 162.502 162.109 161.457 163.048C160.433 163.987 159.846 165.288 159.697 166.952H170.769ZM180.532 162.312C181.044 161.309 181.77 160.531 182.708 159.976C183.668 159.421 184.831 159.144 186.196 159.144V162.152H185.428C182.164 162.152 180.532 163.923 180.532 167.464V177H177.62V159.464H180.532V162.312ZM205.558 167.56C205.558 168.115 205.526 168.701 205.462 169.32H191.446C191.552 171.048 192.139 172.403 193.206 173.384C194.294 174.344 195.606 174.824 197.142 174.824C198.4 174.824 199.446 174.536 200.278 173.96C201.131 173.363 201.728 172.573 202.07 171.592H205.206C204.736 173.277 203.798 174.653 202.39 175.72C200.982 176.765 199.232 177.288 197.142 177.288C195.478 177.288 193.984 176.915 192.662 176.168C191.36 175.421 190.336 174.365 189.59 173C188.843 171.613 188.47 170.013 188.47 168.2C188.47 166.387 188.832 164.797 189.558 163.432C190.283 162.067 191.296 161.021 192.598 160.296C193.92 159.549 195.435 159.176 197.142 159.176C198.806 159.176 200.278 159.539 201.558 160.264C202.838 160.989 203.819 161.992 204.502 163.272C205.206 164.531 205.558 165.96 205.558 167.56ZM202.55 166.952C202.55 165.843 202.304 164.893 201.814 164.104C201.323 163.293 200.651 162.685 199.798 162.28C198.966 161.853 198.038 161.64 197.014 161.64C195.542 161.64 194.283 162.109 193.238 163.048C192.214 163.987 191.627 165.288 191.478 166.952H202.55ZM221.485 161.864V172.2C221.485 173.053 221.666 173.661 222.029 174.024C222.391 174.365 223.021 174.536 223.917 174.536H226.061V177H223.437C221.815 177 220.599 176.627 219.789 175.88C218.978 175.133 218.573 173.907 218.573 172.2V161.864H216.301V159.464H218.573V155.048H221.485V159.464H226.061V161.864H221.485ZM237.237 177.288C235.594 177.288 234.101 176.915 232.757 176.168C231.434 175.421 230.389 174.365 229.621 173C228.874 171.613 228.501 170.013 228.501 168.2C228.501 166.408 228.885 164.829 229.653 163.464C230.442 162.077 231.509 161.021 232.853 160.296C234.197 159.549 235.701 159.176 237.365 159.176C239.029 159.176 240.533 159.549 241.877 160.296C243.221 161.021 244.277 162.067 245.045 163.432C245.834 164.797 246.229 166.387 246.229 168.2C246.229 170.013 245.824 171.613 245.013 173C244.224 174.365 243.146 175.421 241.781 176.168C240.416 176.915 238.901 177.288 237.237 177.288ZM237.237 174.728C238.282 174.728 239.264 174.483 240.181 173.992C241.098 173.501 241.834 172.765 242.389 171.784C242.965 170.803 243.253 169.608 243.253 168.2C243.253 166.792 242.976 165.597 242.421 164.616C241.866 163.635 241.141 162.909 240.245 162.44C239.349 161.949 238.378 161.704 237.333 161.704C236.266 161.704 235.285 161.949 234.389 162.44C233.514 162.909 232.81 163.635 232.277 164.616C231.744 165.597 231.477 166.792 231.477 168.2C231.477 169.629 231.733 170.835 232.245 171.816C232.778 172.797 233.482 173.533 234.357 174.024C235.232 174.493 236.192 174.728 237.237 174.728ZM267.293 159.144C268.616 159.144 269.81 159.432 270.877 160.008C271.944 160.563 272.776 161.405 273.373 162.536C273.992 163.667 274.301 165.043 274.301 166.664V177H271.421V167.08C271.421 165.331 270.984 163.997 270.109 163.08C269.234 162.141 268.04 161.672 266.525 161.672C264.989 161.672 263.762 162.152 262.845 163.112C261.949 164.072 261.501 165.469 261.501 167.304V177H258.589V153.32H261.501V161.96C262.077 161.064 262.866 160.371 263.869 159.88C264.893 159.389 266.034 159.144 267.293 159.144ZM295.058 167.56C295.058 168.115 295.026 168.701 294.962 169.32H280.946C281.052 171.048 281.639 172.403 282.706 173.384C283.794 174.344 285.106 174.824 286.642 174.824C287.9 174.824 288.946 174.536 289.778 173.96C290.631 173.363 291.228 172.573 291.57 171.592H294.706C294.236 173.277 293.298 174.653 291.89 175.72C290.482 176.765 288.732 177.288 286.642 177.288C284.978 177.288 283.484 176.915 282.162 176.168C280.86 175.421 279.836 174.365 279.09 173C278.343 171.613 277.97 170.013 277.97 168.2C277.97 166.387 278.332 164.797 279.058 163.432C279.783 162.067 280.796 161.021 282.098 160.296C283.42 159.549 284.935 159.176 286.642 159.176C288.306 159.176 289.778 159.539 291.058 160.264C292.338 160.989 293.319 161.992 294.002 163.272C294.706 164.531 295.058 165.96 295.058 167.56ZM292.05 166.952C292.05 165.843 291.804 164.893 291.314 164.104C290.823 163.293 290.151 162.685 289.298 162.28C288.466 161.853 287.538 161.64 286.514 161.64C285.042 161.64 283.783 162.109 282.738 163.048C281.714 163.987 281.127 165.288 280.978 166.952H292.05ZM301.814 153.32V177H298.902V153.32H301.814ZM309.689 162.696C310.265 161.693 311.118 160.861 312.249 160.2C313.401 159.517 314.734 159.176 316.249 159.176C317.806 159.176 319.214 159.549 320.472 160.296C321.752 161.043 322.755 162.099 323.481 163.464C324.206 164.808 324.569 166.376 324.569 168.168C324.569 169.939 324.206 171.517 323.481 172.904C322.755 174.291 321.752 175.368 320.472 176.136C319.214 176.904 317.806 177.288 316.249 177.288C314.755 177.288 313.433 176.957 312.281 176.296C311.15 175.613 310.286 174.771 309.689 173.768V185.32H306.777V159.464H309.689V162.696ZM321.593 168.168C321.593 166.845 321.326 165.693 320.793 164.712C320.259 163.731 319.534 162.984 318.617 162.472C317.721 161.96 316.729 161.704 315.641 161.704C314.574 161.704 313.582 161.971 312.665 162.504C311.769 163.016 311.043 163.773 310.489 164.776C309.955 165.757 309.689 166.899 309.689 168.2C309.689 169.523 309.955 170.685 310.489 171.688C311.043 172.669 311.769 173.427 312.665 173.96C313.582 174.472 314.574 174.728 315.641 174.728C316.729 174.728 317.721 174.472 318.617 173.96C319.534 173.427 320.259 172.669 320.793 171.688C321.326 170.685 321.593 169.512 321.593 168.168ZM352.037 159.464L341.477 185.256H338.469L341.925 176.808L334.853 159.464H338.085L343.589 173.672L349.029 159.464H352.037ZM362.612 177.288C360.969 177.288 359.476 176.915 358.132 176.168C356.809 175.421 355.764 174.365 354.996 173C354.249 171.613 353.876 170.013 353.876 168.2C353.876 166.408 354.26 164.829 355.028 163.464C355.817 162.077 356.884 161.021 358.228 160.296C359.572 159.549 361.076 159.176 362.74 159.176C364.404 159.176 365.908 159.549 367.252 160.296C368.596 161.021 369.652 162.067 370.42 163.432C371.209 164.797 371.604 166.387 371.604 168.2C371.604 170.013 371.199 171.613 370.388 173C369.599 174.365 368.521 175.421 367.156 176.168C365.791 176.915 364.276 177.288 362.612 177.288ZM362.612 174.728C363.657 174.728 364.639 174.483 365.556 173.992C366.473 173.501 367.209 172.765 367.764 171.784C368.34 170.803 368.628 169.608 368.628 168.2C368.628 166.792 368.351 165.597 367.796 164.616C367.241 163.635 366.516 162.909 365.62 162.44C364.724 161.949 363.753 161.704 362.708 161.704C361.641 161.704 360.66 161.949 359.764 162.44C358.889 162.909 358.185 163.635 357.652 164.616C357.119 165.597 356.852 166.792 356.852 168.2C356.852 169.629 357.108 170.835 357.62 171.816C358.153 172.797 358.857 173.533 359.732 174.024C360.607 174.493 361.567 174.728 362.612 174.728ZM390.985 159.464V177H388.073V174.408C387.518 175.304 386.739 176.008 385.737 176.52C384.755 177.011 383.667 177.256 382.473 177.256C381.107 177.256 379.881 176.979 378.793 176.424C377.705 175.848 376.841 174.995 376.201 173.864C375.582 172.733 375.273 171.357 375.273 169.736V159.464H378.153V169.352C378.153 171.08 378.59 172.413 379.465 173.352C380.339 174.269 381.534 174.728 383.049 174.728C384.606 174.728 385.833 174.248 386.729 173.288C387.625 172.328 388.073 170.931 388.073 169.096V159.464H390.985ZM411.569 161.864H407.889V177H404.977V161.864H402.705V159.464H404.977V158.216C404.977 156.253 405.478 154.824 406.481 153.928C407.505 153.011 409.137 152.552 411.377 152.552V154.984C410.097 154.984 409.19 155.24 408.657 155.752C408.145 156.243 407.889 157.064 407.889 158.216V159.464H411.569V161.864ZM416.468 156.616C415.913 156.616 415.444 156.424 415.06 156.04C414.676 155.656 414.484 155.187 414.484 154.632C414.484 154.077 414.676 153.608 415.06 153.224C415.444 152.84 415.913 152.648 416.468 152.648C417.001 152.648 417.449 152.84 417.812 153.224C418.196 153.608 418.388 154.077 418.388 154.632C418.388 155.187 418.196 155.656 417.812 156.04C417.449 156.424 417.001 156.616 416.468 156.616ZM417.876 159.464V177H414.964V159.464H417.876ZM431.383 159.144C433.516 159.144 435.244 159.795 436.567 161.096C437.89 162.376 438.551 164.232 438.551 166.664V177H435.671V167.08C435.671 165.331 435.234 163.997 434.359 163.08C433.484 162.141 432.29 161.672 430.775 161.672C429.239 161.672 428.012 162.152 427.095 163.112C426.199 164.072 425.751 165.469 425.751 167.304V177H422.839V159.464H425.751V161.96C426.327 161.064 427.106 160.371 428.087 159.88C429.09 159.389 430.188 159.144 431.383 159.144ZM442.22 168.168C442.22 166.376 442.582 164.808 443.308 163.464C444.033 162.099 445.025 161.043 446.284 160.296C447.564 159.549 448.993 159.176 450.572 159.176C451.937 159.176 453.206 159.496 454.38 160.136C455.553 160.755 456.449 161.576 457.068 162.6V153.32H460.012V177H457.068V173.704C456.492 174.749 455.638 175.613 454.508 176.296C453.377 176.957 452.054 177.288 450.54 177.288C448.982 177.288 447.564 176.904 446.284 176.136C445.025 175.368 444.033 174.291 443.308 172.904C442.582 171.517 442.22 169.939 442.22 168.168ZM457.068 168.2C457.068 166.877 456.801 165.725 456.268 164.744C455.734 163.763 455.009 163.016 454.092 162.504C453.196 161.971 452.204 161.704 451.116 161.704C450.028 161.704 449.036 161.96 448.14 162.472C447.244 162.984 446.529 163.731 445.996 164.712C445.462 165.693 445.196 166.845 445.196 168.168C445.196 169.512 445.462 170.685 445.996 171.688C446.529 172.669 447.244 173.427 448.14 173.96C449.036 174.472 450.028 174.728 451.116 174.728C452.204 174.728 453.196 174.472 454.092 173.96C455.009 173.427 455.734 172.669 456.268 171.688C456.801 170.685 457.068 169.523 457.068 168.2ZM472.376 168.168C472.376 166.376 472.739 164.808 473.464 163.464C474.189 162.099 475.181 161.043 476.44 160.296C477.72 159.549 479.139 159.176 480.696 159.176C482.232 159.176 483.565 159.507 484.696 160.168C485.827 160.829 486.669 161.661 487.224 162.664V159.464H490.168V177H487.224V173.736C486.648 174.76 485.784 175.613 484.632 176.296C483.501 176.957 482.179 177.288 480.664 177.288C479.107 177.288 477.699 176.904 476.44 176.136C475.181 175.368 474.189 174.291 473.464 172.904C472.739 171.517 472.376 169.939 472.376 168.168ZM487.224 168.2C487.224 166.877 486.957 165.725 486.424 164.744C485.891 163.763 485.165 163.016 484.248 162.504C483.352 161.971 482.36 161.704 481.272 161.704C480.184 161.704 479.192 161.96 478.296 162.472C477.4 162.984 476.685 163.731 476.152 164.712C475.619 165.693 475.352 166.845 475.352 168.168C475.352 169.512 475.619 170.685 476.152 171.688C476.685 172.669 477.4 173.427 478.296 173.96C479.192 174.472 480.184 174.728 481.272 174.728C482.36 174.728 483.352 174.472 484.248 173.96C485.165 173.427 485.891 172.669 486.424 171.688C486.957 170.685 487.224 169.523 487.224 168.2ZM188.727 203.144C190.86 203.144 192.588 203.795 193.911 205.096C195.233 206.376 195.895 208.232 195.895 210.664V221H193.015V211.08C193.015 209.331 192.577 207.997 191.703 207.08C190.828 206.141 189.633 205.672 188.119 205.672C186.583 205.672 185.356 206.152 184.439 207.112C183.543 208.072 183.095 209.469 183.095 211.304V221H180.183V203.464H183.095V205.96C183.671 205.064 184.449 204.371 185.431 203.88C186.433 203.389 187.532 203.144 188.727 203.144ZM216.652 211.56C216.652 212.115 216.62 212.701 216.556 213.32H202.54C202.646 215.048 203.233 216.403 204.3 217.384C205.388 218.344 206.7 218.824 208.236 218.824C209.494 218.824 210.54 218.536 211.372 217.96C212.225 217.363 212.822 216.573 213.164 215.592H216.3C215.83 217.277 214.892 218.653 213.484 219.72C212.076 220.765 210.326 221.288 208.236 221.288C206.572 221.288 205.078 220.915 203.756 220.168C202.454 219.421 201.43 218.365 200.684 217C199.937 215.613 199.564 214.013 199.564 212.2C199.564 210.387 199.926 208.797 200.652 207.432C201.377 206.067 202.39 205.021 203.692 204.296C205.014 203.549 206.529 203.176 208.236 203.176C209.9 203.176 211.372 203.539 212.652 204.264C213.932 204.989 214.913 205.992 215.596 207.272C216.3 208.531 216.652 209.96 216.652 211.56ZM213.644 210.952C213.644 209.843 213.398 208.893 212.908 208.104C212.417 207.293 211.745 206.685 210.892 206.28C210.06 205.853 209.132 205.64 208.108 205.64C206.636 205.64 205.377 206.109 204.332 207.048C203.308 207.987 202.721 209.288 202.572 210.952H213.644ZM243.855 203.464L238.383 221H235.375L231.151 207.08L226.927 221H223.919L218.415 203.464H221.391L225.423 218.184L229.775 203.464H232.751L237.007 218.216L240.975 203.464H243.855ZM263.981 203.144C265.303 203.144 266.498 203.432 267.565 204.008C268.631 204.563 269.463 205.405 270.061 206.536C270.679 207.667 270.989 209.043 270.989 210.664V221H268.109V211.08C268.109 209.331 267.671 207.997 266.797 207.08C265.922 206.141 264.727 205.672 263.213 205.672C261.677 205.672 260.45 206.152 259.533 207.112C258.637 208.072 258.189 209.469 258.189 211.304V221H255.277V197.32H258.189V205.96C258.765 205.064 259.554 204.371 260.557 203.88C261.581 203.389 262.722 203.144 263.981 203.144ZM283.393 221.288C281.751 221.288 280.257 220.915 278.913 220.168C277.591 219.421 276.545 218.365 275.777 217C275.031 215.613 274.657 214.013 274.657 212.2C274.657 210.408 275.041 208.829 275.809 207.464C276.599 206.077 277.665 205.021 279.009 204.296C280.353 203.549 281.857 203.176 283.521 203.176C285.185 203.176 286.689 203.549 288.033 204.296C289.377 205.021 290.433 206.067 291.201 207.432C291.991 208.797 292.385 210.387 292.385 212.2C292.385 214.013 291.98 215.613 291.169 217C290.38 218.365 289.303 219.421 287.937 220.168C286.572 220.915 285.057 221.288 283.393 221.288ZM283.393 218.728C284.439 218.728 285.42 218.483 286.337 217.992C287.255 217.501 287.991 216.765 288.545 215.784C289.121 214.803 289.409 213.608 289.409 212.2C289.409 210.792 289.132 209.597 288.577 208.616C288.023 207.635 287.297 206.909 286.401 206.44C285.505 205.949 284.535 205.704 283.489 205.704C282.423 205.704 281.441 205.949 280.545 206.44C279.671 206.909 278.967 207.635 278.433 208.616C277.9 209.597 277.633 210.792 277.633 212.2C277.633 213.629 277.889 214.835 278.401 215.816C278.935 216.797 279.639 217.533 280.513 218.024C281.388 218.493 282.348 218.728 283.393 218.728ZM317.302 203.144C318.667 203.144 319.883 203.432 320.95 204.008C322.017 204.563 322.859 205.405 323.478 206.536C324.097 207.667 324.406 209.043 324.406 210.664V221H321.526V211.08C321.526 209.331 321.089 207.997 320.214 207.08C319.361 206.141 318.198 205.672 316.726 205.672C315.211 205.672 314.006 206.163 313.11 207.144C312.214 208.104 311.766 209.501 311.766 211.336V221H308.886V211.08C308.886 209.331 308.449 207.997 307.574 207.08C306.721 206.141 305.558 205.672 304.086 205.672C302.571 205.672 301.366 206.163 300.47 207.144C299.574 208.104 299.126 209.501 299.126 211.336V221H296.214V203.464H299.126V205.992C299.702 205.075 300.47 204.371 301.43 203.88C302.411 203.389 303.489 203.144 304.662 203.144C306.134 203.144 307.435 203.475 308.566 204.136C309.697 204.797 310.539 205.768 311.094 207.048C311.585 205.811 312.395 204.851 313.526 204.168C314.657 203.485 315.915 203.144 317.302 203.144ZM345.183 211.56C345.183 212.115 345.151 212.701 345.087 213.32H331.071C331.177 215.048 331.764 216.403 332.831 217.384C333.919 218.344 335.231 218.824 336.767 218.824C338.025 218.824 339.071 218.536 339.903 217.96C340.756 217.363 341.353 216.573 341.695 215.592H344.831C344.361 217.277 343.423 218.653 342.015 219.72C340.607 220.765 338.857 221.288 336.767 221.288C335.103 221.288 333.609 220.915 332.287 220.168C330.985 219.421 329.961 218.365 329.215 217C328.468 215.613 328.095 214.013 328.095 212.2C328.095 210.387 328.457 208.797 329.183 207.432C329.908 206.067 330.921 205.021 332.223 204.296C333.545 203.549 335.06 203.176 336.767 203.176C338.431 203.176 339.903 203.539 341.183 204.264C342.463 204.989 343.444 205.992 344.127 207.272C344.831 208.531 345.183 209.96 345.183 211.56ZM342.175 210.952C342.175 209.843 341.929 208.893 341.439 208.104C340.948 207.293 340.276 206.685 339.423 206.28C338.591 205.853 337.663 205.64 336.639 205.64C335.167 205.64 333.908 206.109 332.863 207.048C331.839 207.987 331.252 209.288 331.103 210.952H342.175ZM349.955 221.192C349.4 221.192 348.931 221 348.547 220.616C348.163 220.232 347.971 219.763 347.971 219.208C347.971 218.653 348.163 218.184 348.547 217.8C348.931 217.416 349.4 217.224 349.955 217.224C350.488 217.224 350.936 217.416 351.299 217.8C351.683 218.184 351.875 218.653 351.875 219.208C351.875 219.763 351.683 220.232 351.299 220.616C350.936 221 350.488 221.192 349.955 221.192Z" fill="#45525B"/>
</svg>
